# xmcd
#
# Track frame offsets:
#	150
#	16498
#	32979
#	48457
#	65642
#	80945
#	94842
#	117215
#	131836
#
# Disc length: 2026 seconds
#
# Revision: 0
# Processed by: cddbd v1.5.2PL0 Copyright (c) Steve Scherf et al.
# Submitted via: EasyCDDAExtractor 10.0.6.1
#
DISCID=8207e809
DTITLE=Big Bill Broonzy - The Complete Vogue Recordings - Disc 3 (Alternate Ta
DTITLE=kes)
DYEAR=2005
DGENRE=Blues
TTITLE0=House Rent Stomp
TTITLE1=In The Evening
TTITLE2=Feelin' Low Down
TTITLE3=Blues In 1890
TTITLE4=Lonesome Road Blues
TTITLE5=Black, Brown and White
TTITLE6=Hey! Bud Blues
TTITLE7=Baby, Please Don't Go
TTITLE8=Louise, Louise Blues
EXTD=
EXTT0=
EXTT1=
EXTT2=
EXTT3=
EXTT4=
EXTT5=
EXTT6=
EXTT7=
EXTT8=
PLAYORDER=
